<svg xmlns="http://www.w3.org/2000/svg" viewBox="0 0 512 512" role="img" aria-labelledby="title desc">
  <title id="title">Fire Crow FCv1</title>
  <desc id="desc">A dark shield with a flame and crow mark for the Fire Crow mobile PWA.</desc>
  <rect width="512" height="512" rx="112" fill="#050609"/>
  <path d="M256 54 407 111v111c0 101-62 191-151 236-89-45-151-135-151-236V111L256 54Z" fill="#0b0d18" stroke="#ff7200" stroke-width="18"/>
  <path d="M260 361c-55-28-87-79-87-137v-52l83-31 83 31v52c0 58-32 109-79 137Z" fill="url(#g)" opacity=".95"/>
  <path d="M178 251c45-14 83-43 113-86 4 57 22 97 55 121-49 0-88 18-118 55 2-38-14-68-50-90Z" fill="#050609" opacity=".86"/>
  <path d="M210 243c34-12 62-34 85-67 4 43 17 73 42 91-38 1-68 15-91 43 1-29-11-51-36-67Z" fill="#ffb800" opacity=".85"/>
  <defs>
    <linearGradient id="g" x1="173" x2="339" y1="141" y2="361" gradientUnits="userSpaceOnUse">
      <stop stop-color="#ff4500"/>
      <stop offset=".58" stop-color="#ff7200"/>
      <stop offset="1" stop-color="#ffb800"/>
    </linearGradient>
  </defs>
</svg>
